<svg xmlns="http://www.w3.org/2000/svg" viewBox="0 0 64 64">
  <rect width="64" height="64" rx="14" fill="#b91c1c"></rect>
  <path d="M30.5 39.5L46 55a6.5 6.5 0 009.2-9.2L39.5 30.1m-9 9.4l6.7-8.1c.8-.9 1.9-1.6 3.1-2m-9.8 10.1L18.7 54A6.2 6.2 0 0110 45.3l15.8-13m14.5-2.9c1.4-.4 2.9-.5 4.3-.3A11 11 0 0055.5 13.6l-8 8a7.3 7.3 0 01-5.5-5.5l8-8a11 11 0 00-15.5 10.9c.2 2.6-.2 5.5-2.2 7.2l-.3.2M26.3 32.3L15 21h-3.4L6 12l3.8-3.8 9 5.6v3.4l10.4 10.4" fill="none" stroke="white" stroke-width="4" stroke-linecap="round" stroke-linejoin="round"></path>
</svg>